<svg xmlns="http://www.w3.org/2000/svg" xml:space="preserve" viewBox="0 0 556 491">
  <path fill="#db0000" fill-rule="evenodd" d="M518.99 491A36.64 36.64 0 0 0 551 472.29a35.98 35.98 0 0 0 0-36.59L309.45 18.24a36.58 36.58 0 0 0-63.33 0L5 435.7a35.97 35.97 0 0 0 0 36.59A36.64 36.64 0 0 0 37 491h482z"/>
  <path fill="#fff" fill-rule="evenodd" d="M58.25 441.91h439.76L278.33 60.92l-220.08 381"/>
  <path fill-rule="evenodd" d="m183.07 317.14-12.9 6.22c-5.83-10.8-5.83-27.45 12.9-37 18.3-8.75 30.36 4.98 32.86 10.8 2.9 5.43 7.48 16.65-8.31 42.02l22.87-11.24 5.4 11.24-44.93 21.63-5.4-11.23c12.88-22.88 22.46-36.19 17.9-45.34-2.51-5.42-9.58-8.74-16.66-5-7.06 3.35-7.06 11.66-3.73 17.9m66.13-46.59c6.26-3.33 14.57-2.91 22.88 13.31 7.92 15.8 4.17 23.71-3.31 27.46-7.08 3.31-15.8 1.24-23.3-14.58-7.49-16.22-2.92-23.28 3.74-26.19m-5.83-11.66c8.75-4.57 28.7-7.9 41.61 19.15 12.9 26.62-.42 39.93-10.4 44.92-9.57 4.58-28.71 7.06-41.6-19.55-13.32-27.04 1.66-40.35 10.4-44.52m53.66-22.03c2.9-1.25 6.67-.84 10.41 6.24 3.75 7.49 2.08 10.8-1.25 12.47-3.74 1.66-7.5.84-10.82-6.65-3.75-7.07-1.67-10.4 1.66-12.06m-2.91-5c4.16-2.07 13.32-3.74 19.14 8.74 6.24 12.06 0 18.29-4.57 20.38-4.58 2.49-13.32 3.74-19.14-8.74-6.24-12.47.42-18.7 4.57-20.37m50.76 23.28c2.9-1.25 6.65-.83 10.4 6.24 3.74 7.5 2.09 10.83-1.24 12.49-3.76 1.66-7.5.82-10.83-6.66-3.75-7.07-1.24-10.4 1.67-12.07m-2.5-5c3.74-2.07 12.9-3.73 18.72 8.74 6.24 12.08 0 18.32-4.57 20.4-4.59 2.48-13.32 3.32-19.14-8.74-6.24-12.49.83-18.72 5-20.4m-29.97 52.44 16.23-89.03 7.9-4.15-16.22 89.4-7.91 3.78M81.96 424.45l383.6-.42-84.04-145.99L81.96 424.45"/>
  <path fill="none" stroke="#000" stroke-miterlimit="10" stroke-width=".18" d="m81.96 424.45 383.6-.42-84.04-145.99L81.96 424.45z"/>
</svg>
